<?xml version="1.0" encoding="UTF-8" standalone="no" ?>
<!DOCTYPE svg PUBLIC "-//W3C//DTD SVG 1.1//EN" "http://www.w3.org/Graphics/SVG/1.1/DTD/svg11.dtd">
<svg xmlns="http://www.w3.org/2000/svg" xmlns:xlink="http://www.w3.org/1999/xlink" version="1.1" width="1080" height="1080" viewBox="0 0 1080 1080" xml:space="preserve">
<g transform="matrix(1 0 0 1 540 540)" id="d6cc1911-6f85-4862-b0a5-b11fd492fd09"  >
<rect style="stroke: none; stroke-width: 1; stroke-dasharray: none; stroke-linecap: butt; stroke-dashoffset: 0; stroke-linejoin: miter; stroke-miterlimit: 4; fill: rgb(255,255,255); fill-rule: nonzero; opacity: 1; visibility: hidden;" vector-effect="non-scaling-stroke"  x="-540" y="-540" rx="0" ry="0" width="1080" height="1080" />
</g>
<g transform="matrix(1 0 0 1 540 540)" id="fce88c3d-36cd-4589-b8be-e018c82f5a4a"  >
</g>
<g transform="matrix(1 0 0 1 50 50)"  >
<rect style="stroke: none; stroke-width: 1; stroke-dasharray: none; stroke-linecap: butt; stroke-dashoffset: 0; stroke-linejoin: miter; stroke-miterlimit: 4; fill: rgb(255,255,255); fill-opacity: 0; fill-rule: nonzero; opacity: 1;" vector-effect="non-scaling-stroke"  x="-50" y="-50" rx="0" ry="0" width="100" height="100" />
</g>
<g transform="matrix(1 0 0 1 540 540)" id="21"  >
<rect style="stroke: none; stroke-width: 1; stroke-dasharray: none; stroke-linecap: butt; stroke-dashoffset: 0; stroke-linejoin: miter; stroke-miterlimit: 4; fill: rgb(26,40,43); fill-rule: nonzero; opacity: 1; visibility: hidden;" vector-effect="non-scaling-stroke"  x="-540" y="-540" rx="0" ry="0" width="1080" height="1080" />
</g>
<g transform="matrix(0.13 0 0 -0.13 530.76 530.03)"  >
<path style="stroke: none; stroke-width: 1; stroke-dasharray: none; stroke-linecap: butt; stroke-dashoffset: 0; stroke-linejoin: miter; stroke-miterlimit: 4; fill: rgb(98,130,98); fill-rule: nonzero; opacity: 1;" vector-effect="non-scaling-stroke"  transform=" translate(-5165.59, -5849.47)" d="M 4994 8829 C 4758 8790 4525 8613 4428 8401 C 4360 8254 4339 8049 4375 7893 C 4435 7631 4659 7402 4925 7329 C 4969 7317 5008 7302 5012 7296 C 5022 7281 5022 5227 5013 5232 C 5008 5234 4720 5522 4371 5872 L 3738 6508 L 3780 6561 C 3873 6679 3920 6812 3927 6980 C 3932 7077 3929 7109 3910 7185 C 3830 7508 3567 7731 3234 7756 C 3142 7764 3054 7751 2950 7716 C 2738 7644 2567 7469 2486 7242 C 2457 7160 2455 7146 2456 7015 C 2456 6884 2458 6869 2487 6785 C 2531 6657 2581 6577 2674 6485 C 2766 6394 2850 6341 2965 6303 C 3037 6278 3059 6276 3190 6276 C 3352 6275 3402 6286 3525 6348 L 3595 6383 L 4208 5764 C 4545 5424 4848 5111 4882 5070 C 4916 5029 4958 4964 4976 4925 C 5009 4857 5033 4764 5023 4747 C 5021 4743 4978 4777 4929 4824 C 4828 4920 4711 4996 4597 5040 C 4448 5098 4414 5102 4044 5107 L 3703 5112 L 3686 5173 C 3642 5331 3507 5498 3365 5572 C 3248 5633 3156 5653 3025 5647 C 2841 5639 2714 5584 2585 5455 C 2474 5343 2420 5235 2398 5079 C 2357 4788 2547 4482 2830 4384 C 2921 4352 3035 4339 3130 4350 C 3384 4379 3619 4582 3686 4830 C 3696 4866 3708 4901 3714 4908 C 3722 4919 3785 4921 4044 4918 C 4386 4913 4406 4911 4542 4856 C 4726 4781 4888 4625 4962 4449 C 5011 4331 5020 4258 5020 3961 C 5020 3664 5011 3601 4952 3484 C 4844 3270 4618 3102 4355 3040 C 4296 3026 4269 3014 4253 2995 C 4220 2958 4223 2917 4261 2886 L 4292 2860 L 5127 2862 L 5962 2865 L 5986 2893 C 6014 2926 6017 2970 5993 2998 C 5981 3011 5935 3030 5865 3050 C 5426 3174 5200 3470 5223 3894 C 5239 4200 5372 4559 5542 4760 C 5618 4849 5761 4985 5827 5031 C 6007 5155 6234 5230 6431 5230 C 6476 5230 6480 5228 6486 5203 C 6566 4839 6884 4593 7245 4614 C 7445 4625 7574 4683 7715 4825 C 7869 4979 7929 5114 7938 5326 C 7943 5473 7923 5570 7858 5700 C 7800 5817 7671 5947 7555 6007 C 7423 6075 7345 6094 7205 6095 C 7107 6095 7072 6091 7010 6072 C 6874 6029 6799 5983 6692 5877 C 6585 5772 6502 5613 6483 5474 C 6480 5449 6472 5427 6466 5425 C 6460 5424 6397 5417 6325 5412 C 6073 5391 5864 5306 5644 5134 C 5499 5021 5348 4841 5269 4687 C 5245 4639 5222 4600 5218 4600 C 5208 4600 5209 5413 5220 5552 C 5246 5888 5343 6113 5553 6325 C 5750 6523 5985 6631 6230 6634 L 6335 6635 L 6341 6555 C 6347 6486 6351 6473 6375 6453 C 6398 6432 6412 6430 6497 6430 C 6676 6430 6802 6483 6935 6615 C 7067 6745 7134 6902 7147 7110 C 7152 7196 7151 7207 7132 7230 C 7113 7254 7107 7255 7003 7254 C 6872 7254 6786 7233 6675 7177 C 6567 7122 6449 7005 6400 6904 L 6365 6833 L 6215 6827 C 5938 6817 5737 6740 5513 6554 C 5424 6481 5280 6317 5245 6250 C 5236 6233 5225 6220 5220 6220 C 5204 6220 5207 7272 5223 7292 C 5229 7301 5270 7318 5313 7329 C 5537 7389 5740 7568 5827 7782 C 5900 7963 5901 8178 5829 8358 C 5698 8686 5342 8887 4994 8829 z M 5259 8629 C 5446 8584 5603 8436 5671 8240 C 5703 8147 5703 8002 5671 7905 C 5612 7722 5484 7590 5307 7529 C 5146 7473 4946 7496 4804 7588 C 4691 7661 4598 7790 4564 7921 C 4540 8012 4542 8157 4569 8240 C 4634 8446 4811 8602 5023 8640 C 5082 8650 5190 8645 5259 8629 z M 3324 7550 C 3433 7522 3493 7487 3581 7400 C 3735 7248 3783 7053 3720 6846 C 3651 6625 3460 6477 3225 6463 C 2962 6447 2722 6621 2655 6876 C 2598 7096 2695 7349 2886 7475 C 3021 7565 3168 7590 3324 7550 z M 6945 7009 C 6938 6975 6916 6916 6896 6876 C 6833 6747 6688 6634 6562 6614 L 6518 6607 L 6525 6656 C 6545 6789 6600 6896 6683 6962 C 6749 7014 6777 7028 6863 7050 C 6964 7077 6959 7079 6945 7009 z M 7312 5899 C 7341 5893 7402 5870 7447 5849 C 7590 5779 7694 5650 7735 5490 C 7759 5398 7751 5249 7718 5159 C 7554 4718 6944 4680 6728 5097 C 6683 5184 6666 5254 6666 5360 C 6667 5572 6781 5755 6971 5849 C 7090 5908 7194 5923 7312 5899 z M 3119 5460 C 3372 5418 3554 5172 3510 4929 C 3455 4616 3124 4446 2844 4585 C 2496 4756 2497 5254 2845 5420 C 2940 5465 3015 5476 3119 5460 z" stroke-linecap="round" />
</g>
<g transform="matrix(0.13 0 0 -0.13 270.66 595.22)"  >
<path style="stroke: none; stroke-width: 1; stroke-dasharray: none; stroke-linecap: butt; stroke-dashoffset: 0; stroke-linejoin: miter; stroke-miterlimit: 4; fill: rgb(98,130,98); fill-rule: nonzero; opacity: 1;" vector-effect="non-scaling-stroke"  transform=" translate(-3145.86, -5435.19)" d="M 3138 5433 C 3145 5430 3154 5431 3157 5434 C 3161 5437 3155 5440 3144 5439 C 3133 5439 3130 5436 3138 5433 z" stroke-linecap="round" />
</g>
<g transform="matrix(0.13 0 0 -0.13 244 711.22)"  >
<path style="stroke: none; stroke-width: 1; stroke-dasharray: none; stroke-linecap: butt; stroke-dashoffset: 0; stroke-linejoin: miter; stroke-miterlimit: 4; fill: rgb(98,130,98); fill-rule: nonzero; opacity: 1;" vector-effect="non-scaling-stroke"  transform=" translate(-2945.86, -4565.19)" d="M 2938 4563 C 2945 4560 2954 4561 2957 4564 C 2961 4567 2955 4570 2944 4569 C 2933 4569 2930 4566 2938 4563 z" stroke-linecap="round" />
</g>
<g transform="matrix(2.24 0 0 2.24 524.43 241.1)" id="f8d5b8f6-d7a1-4cd4-b7ff-1918d9feacd6"  >
<circle style="stroke: rgb(0,0,0); stroke-width: 0; stroke-dasharray: none; stroke-linecap: butt; stroke-dashoffset: 0; stroke-linejoin: miter; stroke-miterlimit: 4; fill: rgb(22,191,95); fill-rule: nonzero; opacity: 1;" vector-effect="non-scaling-stroke"  cx="0" cy="0" r="35" />
</g>
<g transform="matrix(0.43 0.35 -0.8 0.98 735.15 398.81)" id="2"  >
<circle style="stroke: rgb(0,0,0); stroke-width: 0; stroke-dasharray: none; stroke-linecap: butt; stroke-dashoffset: 0; stroke-linejoin: miter; stroke-miterlimit: 4; fill: rgb(0,68,255); fill-rule: nonzero; opacity: 1;" vector-effect="non-scaling-stroke"  cx="0" cy="0" r="35" />
</g>
<g transform="matrix(2.16 0 0 2.16 273.54 379.54)" id="1"  >
<circle style="stroke: rgb(255,255,255); stroke-width: 0; stroke-dasharray: none; stroke-linecap: butt; stroke-dashoffset: 0; stroke-linejoin: miter; stroke-miterlimit: 4; fill: rgb(255,198,0); fill-rule: nonzero; opacity: 1;" vector-effect="non-scaling-stroke"  cx="0" cy="0" r="35" />
</g>
<g transform="matrix(1.81 0 0 1.81 256.43 641.78)" id="d5a6a811-3552-432b-932d-d203543b7d5f"  >
<circle style="stroke: rgb(0,0,0); stroke-width: 0; stroke-dasharray: none; stroke-linecap: butt; stroke-dashoffset: 0; stroke-linejoin: miter; stroke-miterlimit: 4; fill: rgb(206,6,6); fill-rule: nonzero; opacity: 1;" vector-effect="non-scaling-stroke"  cx="0" cy="0" r="35" />
</g>
<g transform="matrix(2.13 0 0 2.13 796.59 595.25)" id="d4dd43cf-729f-49b0-936a-98fe4199d1f3"  >
<circle style="stroke: rgb(26,40,43); stroke-width: 0; stroke-dasharray: none; stroke-linecap: butt; stroke-dashoffset: 0; stroke-linejoin: miter; stroke-miterlimit: 4; fill: rgb(250,249,220); fill-rule: nonzero; opacity: 1;" vector-effect="non-scaling-stroke"  cx="0" cy="0" r="35" />
</g>
</svg>